<svg width="194" height="194" viewBox="0 0 194 194" fill="none" xmlns="http://www.w3.org/2000/svg">
<path d="M143 0C171.167 0 194 22.8335 194 51V143C194 171.167 171.167 194 143 194H51C22.8335 194 0 171.167 0 143V51C0 22.8335 22.8335 0 51 0H143ZM97.5 37.1748C95.1885 37.1748 93.3979 38.7122 92.6357 40.7568C86.9971 58.4347 82.6411 59.9717 78.5391 59.9717C74.7037 59.9717 68.8105 58.1811 60.6191 54.0791C58.8158 53.0631 56.5171 53.5707 54.9805 55.1074C53.4439 56.6441 52.9228 58.9428 53.9512 60.7461C59.3358 71.5028 60.8734 78.1578 59.3369 82.0059C57.8003 86.0953 52.1606 89.1686 40.8828 92.7627C38.8385 93.5247 37.3018 95.3284 37.3018 97.627C37.3018 99.9382 38.8385 101.729 40.8828 102.491C51.9065 106.085 57.8003 109.413 59.3369 113.248C61.1275 117.096 59.3359 123.497 53.9512 134.521C52.9227 136.311 53.4439 138.61 54.7266 139.893C56.2632 141.429 58.5619 141.937 60.6191 140.921C68.8105 136.819 74.7037 135.028 78.5391 135.028C83.6697 135.028 87.5051 138.102 92.6357 154.243C93.3979 156.288 95.1885 157.825 97.5 157.825C99.8115 157.825 101.602 156.288 102.11 154.243C107.749 136.565 112.105 135.028 116.194 135.028C120.042 135.028 125.935 136.819 134.127 140.921C136.184 141.683 138.483 141.429 140.02 139.893C141.556 138.356 142.077 136.057 141.049 134C135.664 123.243 134.127 116.588 135.663 112.74C137.2 108.905 142.839 105.831 154.116 102.237C156.161 101.475 157.698 99.6717 157.698 97.373C157.698 95.0616 156.161 93.2708 154.116 92.5088C143.093 89.1687 137.2 85.8412 135.663 82.0059C133.873 78.1578 135.664 71.7567 141.049 60.7461C142.077 58.9428 141.556 56.6441 140.273 55.1074C138.737 53.5707 136.438 53.0631 134.381 54.0791C126.19 58.1811 120.296 59.9717 116.461 59.9717C111.33 59.9717 107.495 56.8981 102.364 40.7568C101.602 38.7122 99.8115 37.1748 97.5 37.1748Z" fill="url(#paint0_linear_330_28)"/>
<defs>
<linearGradient id="paint0_linear_330_28" x1="27.5" y1="-2.60463e-07" x2="194" y2="229" gradientUnits="userSpaceOnUse">
<stop stop-color="#D9D3F1"/>
<stop offset="1" stop-color="#A5A3C3"/>
</linearGradient>
</defs>
</svg>
